<?xml version="1.0" encoding="utf-8"?>
<!-- Generator: Adobe Illustrator 18.1.1, SVG Export Plug-In . SVG Version: 6.00 Build 0)  -->
<svg version="1.1" id="Capa_1" xmlns="http://www.w3.org/2000/svg" xmlns:xlink="http://www.w3.org/1999/xlink" x="0px" y="0px"
	 width="24px" height="24px" viewBox="0 0 24 24" enable-background="new 0 0 24 24" xml:space="preserve">
<g>
	<path d="M866.7,858.3c-14.5,12.4-24.7,29.8-24.6,49.4c0.5,22.4,14.2,44.6,35,53.5c7.2,3.1,15,4.6,22.8,4.6
		c32.1,0,58.2-26,58.2-58.2s-26-58.2-58.2-58.2c-1.4,0-2.8,0.1-4.1,0.2l-96.8-96.8l56.3-56.3c6.2-6.2,6.2-16.4,0-22.6L833,651.7
		c-6.2-6.2-16.4-6.2-22.6,0L643.9,818.3c-6.2,6.2-6.2,16.4,0,22.6l22.3,22.3c6.2,6.2,16.4,6.2,22.6,0l56.3-56.3l79.4,79.4
		c0.1-0.1,0.1-0.2,0.2-0.3c0.7-1,1.4-2.1,2.1-3.1c3-4,6.1-7.6,9.4-10.7c5.8-5.4,12.5-10.3,19.8-13.7c4.8-2.5,10-4.5,15.2-6
		c3.7-1.1,5.9-1.5,5.9-1.5s-1.9,1.1-5,3.3C870.2,855.5,868.4,856.9,866.7,858.3z"/>
	<path d="M94.6,323.2c2.7,11.2,9.2,21.2,18.4,28.2l531.4,402.5l36-36L250.2,259.1L709,689.3l37.2-37.2L346.6,118.5
		c-7.1-9.5-17.3-16.1-28.9-18.8L48.6,38.2C37.7,35.8,28,45.5,30.6,56.4L94.6,323.2z"/>
</g>
</svg>
